<?xml version="1.0" encoding="UTF-8" standalone="no"?><!DOCTYPE svg PUBLIC "-//W3C//DTD SVG 1.1//EN" "http://www.w3.org/Graphics/SVG/1.1/DTD/svg11.dtd"><svg width="100%" height="100%" viewBox="0 0 1459 1459" version="1.1" xmlns="http://www.w3.org/2000/svg" xmlns:xlink="http://www.w3.org/1999/xlink" xml:space="preserve" xmlns:serif="http://www.serif.com/" style="fill-rule:evenodd;clip-rule:evenodd;stroke-linecap:round;stroke-linejoin:round;stroke-miterlimit:1.5;"><g><ellipse cx="729.167" cy="729.167" rx="699.568" ry="693.111" style="fill:#aefff9;fill-opacity:0.22;"/><path d="M729.167,36.056c386.102,0 699.567,310.572 699.567,693.111c0,382.538 -313.465,693.111 -699.567,693.111c-386.102,0 -699.568,-310.573 -699.568,-693.111c0,-382.539 313.466,-693.111 699.568,-693.111Zm0,91.666c335.276,0 607.901,269.263 607.901,601.445c0,332.182 -272.625,601.444 -607.901,601.444c-335.277,0 -607.901,-269.262 -607.901,-601.444c0,-332.182 272.624,-601.445 607.901,-601.445Z" style="fill:#434343;"/><path d="M661.518,62.805c402.438,0 729.166,326.728 729.166,729.166c0,402.439 -326.728,729.167 -729.166,729.167c-402.438,0 -729.167,-326.728 -729.167,-729.167c0,-402.438 326.729,-729.166 729.167,-729.166Zm0,16.666c393.239,0 712.5,319.261 712.5,712.5c0,393.24 -319.261,712.5 -712.5,712.5c-393.24,0 -712.5,-319.26 -712.5,-712.5c0,-393.239 319.26,-712.5 712.5,-712.5Z"/><path d="M695.342,62.805c383.77,0 695.342,311.572 695.342,695.342c0,383.77 -311.572,695.342 -695.342,695.342c-383.77,0 -695.342,-311.572 -695.342,-695.342c0,-383.77 311.572,-695.342 695.342,-695.342Zm0,33.333c365.373,0 662.009,296.636 662.009,662.009c0,365.373 -296.636,662.009 -662.009,662.009c-365.372,0 -662.009,-296.636 -662.009,-662.009c0,-365.373 296.637,-662.009 662.009,-662.009Z" style="fill:#107b78;"/><circle cx="837.661" cy="620.673" r="620.673" style="fill:#d2d2d2;fill-opacity:0.41;stroke:#2ac7c2;stroke-width:18.75px;"/></g><path d="M681.014,581.237l-181.035,0l0,-55.561c0,-25.928 -2.315,-42.442 -6.945,-49.542c-4.63,-7.099 -12.347,-10.649 -23.15,-10.649c-11.73,0 -20.604,4.785 -26.623,14.353c-6.019,9.569 -9.029,24.077 -9.029,43.523c0,25.002 3.396,43.831 10.187,56.487c6.482,12.655 24.848,27.934 55.097,45.837c86.736,51.548 141.371,93.836 163.904,126.863c22.533,33.028 33.799,86.274 33.799,159.737c0,53.4 -6.25,92.755 -18.751,118.066c-12.502,25.311 -36.655,46.532 -72.461,63.664c-35.805,17.131 -77.476,25.696 -125.011,25.696c-52.165,0 -96.691,-9.877 -133.577,-29.632c-36.886,-19.755 -61.039,-44.911 -72.46,-75.47c-11.421,-30.558 -17.131,-73.926 -17.131,-130.104l0,-49.079l181.035,0l0,91.212c0,28.089 2.546,46.146 7.639,54.172c5.093,8.025 14.122,12.038 27.086,12.038c12.964,0 22.61,-5.093 28.938,-15.279c6.327,-10.186 9.491,-25.311 9.491,-45.375c0,-44.139 -6.019,-73 -18.057,-86.582c-12.347,-13.581 -42.751,-36.268 -91.212,-68.061c-48.461,-32.102 -80.563,-55.407 -96.305,-69.914c-15.742,-14.508 -28.783,-34.571 -39.124,-60.191c-10.34,-25.619 -15.51,-58.338 -15.51,-98.157c0,-57.412 7.33,-99.392 21.992,-125.937c14.662,-26.546 38.352,-47.304 71.072,-62.274c32.719,-14.971 72.228,-22.456 118.529,-22.456c50.622,0 93.758,8.18 129.41,24.539c35.651,16.36 59.264,36.963 70.839,61.811c11.576,24.848 17.363,67.059 17.363,126.632l0,29.633Z" style="fill-rule:nonzero;"/><path d="M1206.53,354.364l0,749.605l-194.925,0l0,-314.843l-58.339,0l0,314.843l-194.925,0l0,-749.605l194.925,0l0,268.08l58.339,0l0,-268.08l194.925,0Z" style="fill-rule:nonzero;"/></svg>